<svg width="49" height="48" viewBox="0 0 49 48" fill="none" xmlns="http://www.w3.org/2000/svg">
<path d="M29.5 8H19.5L14.5 14H8.5C7.43913 14 6.42172 14.4214 5.67157 15.1716C4.92143 15.9217 4.5 16.9391 4.5 18V36C4.5 37.0609 4.92143 38.0783 5.67157 38.8284C6.42172 39.5786 7.43913 40 8.5 40H40.5C41.5609 40 42.5783 39.5786 43.3284 38.8284C44.0786 38.0783 44.5 37.0609 44.5 36V18C44.5 16.9391 44.0786 15.9217 43.3284 15.1716C42.5783 14.4214 41.5609 14 40.5 14H34.5L29.5 8Z" stroke="#94A3B8" stroke-width="4" stroke-linecap="round" stroke-linejoin="round"/>
<path d="M24.5 32C27.8137 32 30.5 29.3137 30.5 26C30.5 22.6863 27.8137 20 24.5 20C21.1863 20 18.5 22.6863 18.5 26C18.5 29.3137 21.1863 32 24.5 32Z" stroke="#94A3B8" stroke-width="4" stroke-linecap="round" stroke-linejoin="round"/>
</svg>
