<svg width="21" height="20" viewBox="0 0 21 20" fill="none" xmlns="http://www.w3.org/2000/svg">
<path d="M10.5 2.5H4.66667C4.22464 2.5 3.80072 2.67559 3.48816 2.98816C3.17559 3.30072 3 3.72464 3 4.16667V15.8333C3 16.2754 3.17559 16.6993 3.48816 17.0118C3.80072 17.3244 4.22464 17.5 4.66667 17.5H16.3333C16.7754 17.5 17.1993 17.3244 17.5118 17.0118C17.8244 16.6993 18 16.2754 18 15.8333V10" stroke="#3B82F6" stroke-width="1.66667" stroke-linecap="round" stroke-linejoin="round"/>
<path d="M15.8125 2.18744C16.144 1.85592 16.5937 1.66968 17.0625 1.66968C17.5313 1.66968 17.981 1.85592 18.3125 2.18744C18.644 2.51897 18.8303 2.9686 18.8303 3.43744C18.8303 3.90629 18.644 4.35592 18.3125 4.68744L10.8017 12.1991C10.6038 12.3968 10.3593 12.5415 10.0908 12.6199L7.69666 13.3199C7.62496 13.3409 7.54895 13.3421 7.47659 13.3236C7.40423 13.305 7.33819 13.2674 7.28537 13.2146C7.23255 13.1618 7.1949 13.0957 7.17637 13.0234C7.15783 12.951 7.15908 12.875 7.18 12.8033L7.88 10.4091C7.95877 10.1408 8.10378 9.89666 8.30166 9.69911L15.8125 2.18744Z" stroke="#3B82F6" stroke-width="1.66667" stroke-linecap="round" stroke-linejoin="round"/>
</svg>
