<svg width="25" height="25" viewBox="0 0 25 25" fill="none" xmlns="http://www.w3.org/2000/svg">
<path d="M15.5 21.5V13.5C15.5 13.2348 15.3946 12.9804 15.2071 12.7929C15.0196 12.6054 14.7652 12.5 14.5 12.5H10.5C10.2348 12.5 9.98043 12.6054 9.79289 12.7929C9.60536 12.9804 9.5 13.2348 9.5 13.5V21.5" stroke="#94A3B8" stroke-width="2" stroke-linecap="round" stroke-linejoin="round"/>
<path d="M3.5 10.5C3.49993 10.209 3.56333 9.92159 3.68579 9.65768C3.80824 9.39378 3.9868 9.15976 4.209 8.97197L11.209 2.97297C11.57 2.66788 12.0274 2.50049 12.5 2.50049C12.9726 2.50049 13.43 2.66788 13.791 2.97297L20.791 8.97197C21.0132 9.15976 21.1918 9.39378 21.3142 9.65768C21.4367 9.92159 21.5001 10.209 21.5 10.5V19.5C21.5 20.0304 21.2893 20.5391 20.9142 20.9142C20.5391 21.2893 20.0304 21.5 19.5 21.5H5.5C4.96957 21.5 4.46086 21.2893 4.08579 20.9142C3.71071 20.5391 3.5 20.0304 3.5 19.5V10.5Z" stroke="#94A3B8" stroke-width="2" stroke-linecap="round" stroke-linejoin="round"/>
</svg>
