<svg width="21" height="20" viewBox="0 0 21 20" fill="none" xmlns="http://www.w3.org/2000/svg">
<path d="M13.1667 2.5C13.6063 2.50626 14.0256 2.68598 14.3333 3L17.5 6.16667C17.814 6.47438 17.9937 6.89372 18 7.33333V15.8333C18 16.2754 17.8244 16.6993 17.5118 17.0118C17.1993 17.3244 16.7754 17.5 16.3333 17.5H4.66667C4.22464 17.5 3.80072 17.3244 3.48816 17.0118C3.17559 16.6993 3 16.2754 3 15.8333V4.16667C3 3.72464 3.17559 3.30072 3.48816 2.98816C3.80072 2.67559 4.22464 2.5 4.66667 2.5H13.1667Z" stroke="white" stroke-width="1.66667" stroke-linecap="round" stroke-linejoin="round"/>
<path d="M14.6667 17.5V11.6667C14.6667 11.4457 14.5789 11.2337 14.4226 11.0775C14.2663 10.9212 14.0544 10.8334 13.8334 10.8334H7.16671C6.94569 10.8334 6.73373 10.9212 6.57745 11.0775C6.42117 11.2337 6.33337 11.4457 6.33337 11.6667V17.5" stroke="white" stroke-width="1.66667" stroke-linecap="round" stroke-linejoin="round"/>
<path d="M6.33337 2.5V5.83333C6.33337 6.05435 6.42117 6.26631 6.57745 6.42259C6.73373 6.57887 6.94569 6.66667 7.16671 6.66667H13" stroke="white" stroke-width="1.66667" stroke-linecap="round" stroke-linejoin="round"/>
</svg>
