<svg width="25" height="25" viewBox="0 0 25 25" fill="none" xmlns="http://www.w3.org/2000/svg">
<path d="M12.72 2.5H12.28C11.7496 2.5 11.2409 2.71071 10.8658 3.08579C10.4907 3.46086 10.28 3.96957 10.28 4.5V4.68C10.2796 5.03073 10.1871 5.37519 10.0115 5.67884C9.83602 5.98248 9.58374 6.23464 9.28 6.41L8.85 6.66C8.54596 6.83554 8.20108 6.92795 7.85 6.92795C7.49893 6.92795 7.15404 6.83554 6.85 6.66L6.7 6.58C6.24107 6.31526 5.69584 6.24344 5.184 6.38031C4.67217 6.51717 4.23555 6.85154 3.97 7.31L3.75 7.69C3.48526 8.14893 3.41345 8.69416 3.55031 9.206C3.68717 9.71783 4.02154 10.1544 4.48 10.42L4.63 10.52C4.93228 10.6945 5.18362 10.9451 5.35905 11.2468C5.53448 11.5486 5.6279 11.891 5.63 12.24V12.75C5.6314 13.1024 5.53965 13.449 5.36405 13.7545C5.18844 14.0601 4.93521 14.3138 4.63 14.49L4.48 14.58C4.02154 14.8456 3.68717 15.2822 3.55031 15.794C3.41345 16.3058 3.48526 16.8511 3.75 17.31L3.97 17.69C4.23555 18.1485 4.67217 18.4828 5.184 18.6197C5.69584 18.7566 6.24107 18.6847 6.7 18.42L6.85 18.34C7.15404 18.1645 7.49893 18.0721 7.85 18.0721C8.20108 18.0721 8.54596 18.1645 8.85 18.34L9.28 18.59C9.58374 18.7654 9.83602 19.0175 10.0115 19.3212C10.1871 19.6248 10.2796 19.9693 10.28 20.32V20.5C10.28 21.0304 10.4907 21.5391 10.8658 21.9142C11.2409 22.2893 11.7496 22.5 12.28 22.5H12.72C13.2504 22.5 13.7591 22.2893 14.1342 21.9142C14.5093 21.5391 14.72 21.0304 14.72 20.5V20.32C14.7204 19.9693 14.8129 19.6248 14.9885 19.3212C15.164 19.0175 15.4163 18.7654 15.72 18.59L16.15 18.34C16.454 18.1645 16.7989 18.0721 17.15 18.0721C17.5011 18.0721 17.846 18.1645 18.15 18.34L18.3 18.42C18.7589 18.6847 19.3042 18.7566 19.816 18.6197C20.3278 18.4828 20.7645 18.1485 21.03 17.69L21.25 17.3C21.5147 16.8411 21.5866 16.2958 21.4497 15.784C21.3128 15.2722 20.9785 14.8356 20.52 14.57L20.37 14.49C20.0648 14.3138 19.8116 14.0601 19.636 13.7545C19.4604 13.449 19.3686 13.1024 19.37 12.75V12.25C19.3686 11.8976 19.4604 11.551 19.636 11.2455C19.8116 10.9399 20.0648 10.6862 20.37 10.51L20.52 10.42C20.9785 10.1544 21.3128 9.71783 21.4497 9.206C21.5866 8.69416 21.5147 8.14893 21.25 7.69L21.03 7.31C20.7645 6.85154 20.3278 6.51717 19.816 6.38031C19.3042 6.24344 18.7589 6.31526 18.3 6.58L18.15 6.66C17.846 6.83554 17.5011 6.92795 17.15 6.92795C16.7989 6.92795 16.454 6.83554 16.15 6.66L15.72 6.41C15.4163 6.23464 15.164 5.98248 14.9885 5.67884C14.8129 5.37519 14.7204 5.03073 14.72 4.68V4.5C14.72 3.96957 14.5093 3.46086 14.1342 3.08579C13.7591 2.71071 13.2504 2.5 12.72 2.5Z" stroke="#94A3B8" stroke-width="2" stroke-linecap="round" stroke-linejoin="round"/>
<path d="M12.5 15.5C14.1569 15.5 15.5 14.1569 15.5 12.5C15.5 10.8431 14.1569 9.5 12.5 9.5C10.8431 9.5 9.5 10.8431 9.5 12.5C9.5 14.1569 10.8431 15.5 12.5 15.5Z" stroke="#94A3B8" stroke-width="2" stroke-linecap="round" stroke-linejoin="round"/>
</svg>
